<svg width="838" height="991" viewBox="0 0 838 991" fill="none" xmlns="http://www.w3.org/2000/svg">
<path fill-rule="evenodd" clip-rule="evenodd" d="M617.216 107.19C672.884 108.718 734.963 89.6814 780.308 108.269C825.668 126.863 826.907 164.811 834.984 196.457C841.823 223.249 836.7 249.495 822.967 275.402C808.974 301.799 789.229 326.585 755.559 346.286C716.554 369.109 672.082 390.238 617.216 395.793C556.114 401.979 479.619 404.911 438.176 378.421C396.083 351.517 434.638 308.612 424.934 272.891C417.475 245.436 385.387 222.095 388.171 194.355C391.604 160.139 392.599 117.943 442.382 98.9981C492.33 79.9899 557.345 105.548 617.216 107.19Z" fill="#374A62"/>
<path fill-rule="evenodd" clip-rule="evenodd" d="M343.203 484.85C419.044 443.714 462.078 338.07 550.908 343.179C621.196 347.221 644.795 440.972 653.283 502.684C660.981 558.66 604.383 604.965 594.576 660.684C586.781 704.971 608.763 748.228 602.241 792.676C592.967 855.882 606.181 936.169 548.523 974.543C492.856 1011.59 411.805 976.056 343.203 965.076C284.548 955.688 231.489 935.992 176.805 915.047C115.502 891.566 19.0511 891.522 2.17138 834.455C-16.7208 770.585 93.6596 726.324 101.567 660.684C108.17 605.879 1.64597 549.356 41.618 507.012C85.615 460.404 175.795 514.52 244.294 509.487C279.025 506.935 313.511 500.955 343.203 484.85Z" fill="#131A22"/>
</svg>
