<svg width="24" height="24" viewBox="0 0 24 24" fill="none" xmlns="http://www.w3.org/2000/svg">
<path d="M11 8V13L15.25 15.52L16.02 14.24L12.5 12.15V8H11ZM21 10V3L18.36 5.64C17.5272 4.80123 16.5362 4.136 15.4445 3.68284C14.3528 3.22968 13.182 2.99759 12 3C10.22 3 8.47991 3.52784 6.99987 4.51677C5.51983 5.50571 4.36628 6.91131 3.68509 8.55585C3.0039 10.2004 2.82567 12.01 3.17294 13.7558C3.5202 15.5016 4.37737 17.1053 5.63604 18.364C6.89472 19.6226 8.49836 20.4798 10.2442 20.8271C11.99 21.1743 13.7996 20.9961 15.4442 20.3149C17.0887 19.6337 18.4943 18.4802 19.4832 17.0001C20.4722 15.5201 21 13.78 21 12H19C19 15.86 15.86 19 12 19C8.14 19 5 15.86 5 12C5 8.14 8.14 5 12 5C13.93 5 15.68 5.79 16.95 7.05L14 10H21Z" fill="#E2E5E9"/>
</svg>
